<?xml version="1.0" encoding="UTF-8"?>
<svg id="Capa_1" data-name="Capa 1" xmlns="http://www.w3.org/2000/svg" viewBox="0 0 200 200">
  <defs>
    <style>
      .cls-1 {
        fill-rule: evenodd;
      }
    </style>
  </defs>
  <path class="cls-1" d="M157.78,120l-.24-.1c-15.67-6.49-28.13-.76-36.04,5.52,3.88-9.89,4.83-18.79,5-20.78,1.2-2.42,2.85-3.89,5.04-4.5,5.84-1.62,13.44,3.43,13.51,3.48l2.04,1.37,12.03-29.72-37.61-36.56-29.85,3.4c-.65.1-1.3.22-1.94.35-5.77-7.47-13.08-13.61-21.52-17.15l31.45-7.46,65.93,15.64.64,40.02c0,16.64-2.92,32.3-8.43,46.49h0ZM99.85,77.74c1.08,11.49-.21,39.24-35.23,49.35l-17.99-31.74c1.41-14.4,8.11-27.17,18.12-36.19l.34.46c8.62,11.49,8.63,23.67.04,34.3l-1.25,1.55,3.11,2.49,1.25-1.55c9.84-12.17,9.85-26.08.04-39.16l-.48-.64c5.93-4.6,12.82-7.97,20.35-9.75,6.31,8.74,10.62,19.51,11.69,30.89h0ZM130.88,53.72c-4.22,3.44-9.48,7.72-8.33,26.53.73,12,.15,21.52.03,23.36h0s-.02.39-.02.39c0,.12-.78,12.52-6.73,24.72-7.68,15.75-20.03,23.79-36.71,23.93l-12.48-22.02c25.72-7.8,39.6-27.62,37.19-53.27-1-10.58-5.08-21.79-11.51-31.34l27.78-3.16,11.01,10.71c-.07.05-.15.09-.22.14h0ZM139.02,74.88c3.81.07,6.96-2.91,7.12-6.68l8.29,8.06-9.25,22.84c-3.13-1.68-9.23-4.29-14.7-2.78-1.35.37-2.56.97-3.65,1.77.13-4.37.15-10.72-.29-18.08-1.02-16.79,2.99-20.06,6.87-23.22.19-.15.34-.34.45-.54l12.11,11.77-13.82-.26c-.07,3.86,3.01,7.04,6.88,7.11h0ZM99.67,181.61c-41.29-19.09-65.88-59.36-65.88-108.1v-40.03l27.03-6.41c9.25,2.32,17.88,8.24,24.69,16.38-23.41,6.35-40.69,26.99-42.9,52.18l-.05.61,34.22,60.38,1.14.02c.25,0,.49,0,.74,0,17.19,0,28.24-7.8,35.33-17.38l.2.13,1.07-1.67c.04-.06,4.1-6.28,11.19-11.09,9.3-6.3,19.25-7.33,29.56-3.06l.27.11c-10.92,25.49-30.44,45.85-56.61,57.94h0ZM99.65,9.69L25.81,27.21v46.3c0,52.6,27,95.99,72.23,116.08l1.62.72,1.62-.72c45.65-20.28,72.9-63.67,72.9-116.15l-.74-46.25L99.65,9.69Z"/>
</svg>