<?xml version="1.0" encoding="UTF-8"?>
<svg id="Capa_1" data-name="Capa 1" xmlns="http://www.w3.org/2000/svg" viewBox="0 0 160 160">
  <defs>
    <style>
      .cls-1, .cls-2 {
        fill: #444444;
      }

      .cls-2 {
        stroke: #444444;
        stroke-miterlimit: 10;
      }
    </style>
  </defs>
  <path class="cls-2" d="M120.85,23.13c4.43,4.01,8.53,8.48,12.88,12.59-4.84,5.31-6.64,13.14-7.66,20.12-2.47,16.92-.43,34.6,8.66,49.3l-10.14,17.19c-.44.26-2.74-1.96-4.35-1.22-.42.19-1.43,1.51-1.94,1.93-7.09,5.97-17.6,11.37-25.88,15.72-4.09,2.15-8.2,4.38-12.46,6.14-12.32-6.35-26.07-12.48-37.1-20.91-.7-.53-2.75-2.69-3.17-2.88-1.39-.64-3.05.87-4.34,1.32l-10.08-17.29c8.93-14.29,11.15-32.04,8.83-48.57-.99-7.08-2.8-15.62-7.94-20.83l15.35-14.63c9.04,6.62,20.95,7.27,31.7,5.65,1.78,2.65,3.84,5.13,6.75,6.6,1.81-.84,3.55-2.29,4.84-3.78.47-.54,1.56-2.49,1.98-2.62,1.48-.2,3.07.38,4.54.45,9.49.45,19.32-.46,27.14-6.26.25-.02,2.02,1.67,2.4,2ZM73.02,27.92c-10.83,1.11-22.23.75-31.48-5.58l-13.83,13.27v.48c3.6,3.93,5.26,9.79,6.35,14.95,2.65,12.57,2.53,26.37-1.01,38.74-1.54,5.38-3.78,10.55-6.64,15.35l9.42,15.98c1.34-.38,2.6-1.56,4.11-.97,11.7,10.17,26.34,16.69,40.03,23.79,12.61-6.55,26.86-12.81,37.96-21.76.62-.5,1.49-1.73,2.12-1.99,1.54-.63,2.98.39,4.29,1.03l9.31-16.21c-8.19-13.34-10.62-29.63-9.06-45.1.82-8.15,2.66-17.76,7.94-24.19l-14.1-13.42c-9.08,6.32-20.47,6.75-31.15,5.61-1.07,1.45-5.61,6.54-7.31,6.48-1.44-.05-6.41-4.79-6.94-6.47Z"/>
  <path class="cls-1" d="M118.63,119.14c-.76.49-1.63,1.71-2.39,2.32-10.6,8.36-24.26,14.48-36.27,20.58-8.41-4.02-16.84-8.33-24.86-13.12-3.85-2.3-7.82-4.68-11.35-7.46-2.6-2.05-3.31-4.34-7.42-2.42l-7.95-13.69c3.91-7.07,6.72-14.77,8.09-22.77,1.79-10.42,1.37-22.43-.97-32.74-1.08-4.75-2.64-10.04-5.72-13.86l12.16-11.46c8.74,5.81,19.82,6.15,29.98,5.34,2.33,2.56,4.71,5.17,8.03,6.46,3.37-1.19,5.8-3.81,8.02-6.46,10.42.88,21.32.37,30.39-5.33l11.74,11.66c-3.29,4.27-4.91,10.1-5.95,15.35-3.36,16.9-1.96,34.61,5.52,50.2.41.86,1.95,2.89,1.9,3.64l-8.09,13.61c-1.83-.73-3.15-.95-4.87.17ZM37.76,81.07h27.57v-9.19c1.95.32,3.33-1.25,2.9-3.14h9.67v-32.29c-2.34-1.63-4.52-3.38-6.22-5.69-10.21.8-20.78.33-29.74-5.04l-10.49,9.99-.19.68c2.69,3.98,4.17,8.78,5.21,13.44,2.29,10.21,2.48,20.87,1.28,31.24ZM82.02,36.33v32.41h9.92c-.23,2.18.96,3.38,3.14,3.14v9.19h27.33c-1.21-8.27-1.11-16.72.03-25,.95-6.85,2.7-14.07,6.46-19.91l-.07-.31-10.86-10.12c-8.82,5.46-19.4,5.74-29.51,5.08-1.88,2.1-3.86,4.29-6.44,5.52ZM81.29,36.82c-.89.62-1.53.61-2.42,0v31.92h2.42v-31.92ZM90.96,69.48h-21.15c-.75.13-.68,1.21-1.2,1.93-.56.78-1.36,1.06-2.2,1.43l-.11,19.72c.04.74.84.49,1.34.83.75.51,1.7,1.68,1.57,2.66l21.62.02c.25-1.73,1.6-3.59,3.53-3.4l-.1-19.47c-1.55-.92-3.3-1.5-3.29-3.73ZM65.33,81.8h-27.81l-.24,1.45h28.05v-1.45ZM122.04,81.8h-26.97v1.45h27.57v-1.45c-.25.18-.42.02-.6,0ZM65.33,84.22h-28.3c-1.37,7.42-3.96,14.6-7.65,21.16l7.16,12.11c.56.61,1.86-.11,2.72-.07,2.23.09,5.61,3.77,7.61,5.21,2.13,1.54,4.53,2.98,6.77,4.35,7.84,4.77,16.08,8.93,24.26,13.11v-43.29h-9.43c-.12-1.8-1.21-3.21-3.14-2.9v-9.67ZM122.77,84.22h-27.69v9.43c-2.15-.32-3.46,1-3.14,3.14h-9.92v43.29c7.7-3.83,15.43-7.73,22.81-12.14,3.72-2.23,7.79-4.74,11.16-7.46.91-.73,1.75-2.04,2.77-2.55,1.66-.82,2.87-.44,4.57-.14l7.24-12.63c-3.66-6.34-6.05-13.36-7.5-20.54l-.31-.41ZM81.29,96.79h-2.42v43.65c.85.92,1.47.57,2.42.12v-43.77Z"/>
  <path class="cls-1" d="M116.76,65.03c-2.14,2.03-9.06,3.41-9.57,6.75-.25,1.63.21,3.3.24,4.82.02,1.02-2-.74-2.31-1.08-3.26-3.55-1.94-7.42,1.46-10.16,2.02-1.62,4.11-2.09,6.17-3.26,2.37-1.34,1.14-4.27-1.4-3.33-4.05,1.99-8.13,5.34-12.18,7.16-7.85,3.53-14.09-7.13-7.21-12.29l19.7-9.8c2.31-2.84-.48-6.18-3.74-4.22-1.08.65-5.6,3.99-6.31,4.82-.67.77-.72,2.5-1.37,2.74-2.49.03-5.81,1.32-8.18,1.28-.85-.01-1.43-.74-1.81-.63l-1.89,1.74c-.46.58,1.27,2.76.32,2.97-.56.12-.88-1.06-.85-1.45l-.52.93-.93.04c.08-1.39.82-2.9,1.82-3.87.36-.35,1.53-.94,1.7-1.22.31-.5-.44-1.07.1-1.57.4-.37,1.77-1.02,2.4-1.48.91-.66,3.85-3.41,4.39-3.59,1.02-.34,2.29.13,3.13-.26,1.71-.79,4.06-4.22,6.13-5.24,9.22-4.53,16.8,8.58,7.42,14.2-5.43,3.25-12.67,5.29-18.03,8.57-2.07,1.27-.87,3.69,1.15,3.35,4.41-1.48,9.15-5.3,13.42-6.67,6.86-2.2,11.6,6.15,6.75,10.74ZM116.36,43.35c.98-.72.4-2.78.04-3.79-1.1-3.12-4.35-5.08-7.64-4.65-2.24.29-4.22,2.19-5.83,3.61-.56.5-2.04,2.3-2.54,2.53-.93.42-2.46-.17-3.38.25-.59.27-1.81,1.67-2.44,2.15-1.25.94-2.54,1.87-3.86,2.7.22.74.52,1.27,1.34,1.34,2.02.16,5.49-1.2,7.68-1.23.42-.23.49-1.76.98-2.34s6.09-4.75,6.96-5.25c3.12-1.81,7.86,1.49,8.69,4.69ZM93.38,64.87c-.73-2.53-.93-5.75,1.09-7.74,6.51-3.57,13.73-6.04,19.95-10.04,2.01-2.31,1.38-4.59-.84-6.4l-.48,2.66-1.35,1.55c-5.77,3.26-12.71,5.65-18.37,8.96-.78.46-1.61.97-2.17,1.7-2.25,2.93-1.45,7.94,2.17,9.31ZM113.7,65.59c7.7-2.52,3.53-13.42-4.35-10.03-4.16,1.79-8.27,4.67-12.57,6.3-.93.34-2.42-.13-2.68-1.1-.3-.07-.42.49-.43.67-.1,1.39.67,2.89,1.2,4.13,1.64.21,2.78.06,4.24-.64,3.86-1.85,7.87-5.22,11.71-6.91,4.87-2.15,4.76,4.96,2.88,7.59ZM106.2,75.03v-3.51c0-.74,1.35-2.17,1.93-2.66,2.27-1.95,3.95-1.42,5.2-4.72.16-.43.37-.85.37-1.32-5.18,1.46-13.31,6.43-7.5,12.21Z"/>
  <path class="cls-1" d="M63.39,36.58v3.99c0,.12-1.4,1.5-1.6,1.8-5.11-3.46-4.4,5.61.39,1.23.6,2.42-.12,5.2-3.14,4.6l2.09,1.66,5.84-3.65c-.25-2.61.94-5.28,3.92-5.03v7.86l-4.11,4.84c0,.36,2.2.33,2.67.47,1.66.52,2.91,2.79,2.89,4.48h-6.17c-.15,0-1.5-1.39-2.78-.61-.57.35-1.94,4.34-2.66,5.08,3.58-.49,6.28,3.33,3.97,6.39-.27.36-1.86,1.47-2.16,1.47h-7.62c.89-1.52,2.02-2.9,3.53-3.85l.57.94c-.88.17-1.95,1.03-2.17,1.94h5.68c1.1,0,2.2-2.36,2.05-3.49-.57-4.23-5.99-1.99-8.19-.73-2.88,1.64-6.32,6.09-8.56,6.92-1.43.53-4.99.04-4.42-1.74.27-.85,1.55-2.34,2.02-3.56,1.51-3.94.75-8.91-1.43-12.48-.9-1.46-2.17-2.1-2.38-4.15-.19-1.91,1.57-11.62,2.19-13.78.07-.25.1-.47.35-.62h19.23ZM48.88,37.54h-3.63c.61,2.02,2.98,1.99,3.63,0ZM62.43,39.96c-1.83-.07-2.31-.94-3.05-2.39-2.8.2-6.22-.38-8.93-.05-1.06.13-.76.71-1.32,1.34-.88,1-1.53,1.24-2.9,1.09,2.08,2.48,5.09,4.5,7.98,5.93,2.14,1.06,3.15,1.59,5.7,1.34,1.33-.13,1.42-.7,1.56-1.95-3.83,2.47-6.04-4.08-1.94-4.74,1.33-.22,2.37,1.5,2.91-.58ZM62.43,37.54l-1.93.12c.42.76.96,1.4,1.93,1.33v-1.45ZM53.72,53.99c-1.38-3.64-4.71-5.51-6.63-8.72l-2.8-6.03c.19,4.46-4.16,11.76.37,14.75h9.06ZM62.43,53.99c.11-.65-.18-1.08-.44-1.61-1.64-3.33-8.1-5.4-11.25-7.38-1.47-.92-2.77-2.07-4.15-3.11,1.27,4.97,6.47,7.34,8.22,12.09h7.62ZM69.92,42.14c-2.26.38-1.88,3.07-2.4,4.74l-5.59,3.61c.69,1.08,1.5,2.12,1.47,3.49.62-.02,1.41.13,2-.04.78-.23,3.42-4.37,4.4-5.05l.25-.45c.03-.2-.13-.33-.13-.38v-5.93ZM49.01,54.96c-.68-.17-2.74,0-3.63,0-.05,0-.49-.61-.37.12.11.64.73,1.46.98,2.17,1.85,5.37,1.72,9.7-1.7,14.39,3.5,2.28,5.9-1.99,8.22-3.99,1.23-1.06,2.71-2.09,4.14-2.87.8-.44,2.42-.84,3-1.35.94-.84,1.62-3.65,2.53-4.73l-9.67,2.78c.23-1.91-.37-4-1.8-5.33-.19-.18-1.6-1.17-1.7-1.2ZM68.35,54.96h-17.53c1.41,1.47,2.73,3.16,2.66,5.32,2.91-.5,9.24-3.77,11.91-3.08.37.1,1.29.91,1.51.91h4.47c-.35-1.44-1.5-2.89-3.02-3.14Z"/>
  <path class="cls-1" d="M88.43,123.4s-.59.47-.6-.12c0-.33,3.34-3.97,3.86-4.6.19-.24,1.39-1.64,1.21-1.81l-5.21,2.16-.34-.35c4.6-6.47,8.7-13.75,13.79-19.83,1.27-1.51,2.9-3.88,5.07-3.51l-.47-3.03c-1.4-.38-3.06-.64-3.79.87-1.6.36-.94-2.11-.49-2.96,1.7-3.23,8.93-1.93,12.02-2.02l4.1,11.84c-.89,2.99-1.56,5.97-3.18,8.68-.88,1.47-2.33,2.16-1.88,4.27.82-.05,2,.5,2.74.42.65-.07,1.28-.85,1.83-1.02,1.78-.55,2.8.57,2.67,2.31h-.96c.21-1.66-.57-1.67-1.94-1.21,0,.42.64.3.85.72s.1.99.11,1.46h-.72s-.14-1-.14-1c-1.38-.58-3.48.12-3,1.84-1.41.57-.95-1.58-.25-2.18-.49-.61-1.21-.18-1.84-.59-.67-.44.33-1.64-.45-1.7-1.82,1.66-4.3,2.62-6.65,3.26l-.69,1.74.2.43c1.02.1,2.29.93,3.27.87.92-.06,1.47-1.1,2.64-.99s1.77,1.35,1.59,2.42h-.96s-.23-1.35-.23-1.35c-.58-.25-1.54-.2-1.46.61,1.19,0,1.17,2.61.15,1.71-.26-.23-.14-.67-.53-.96-1.16-.86-3.35.63-2.77,2.16h-.72c.03-.61-.14-1.92.3-2.36.26-.26.93-.1.91-.54l-3.63-.97.73-2.41-4.08.51c-.61,1.32-1.8,7.22-3.54,7.22-2.5,0-5-.05-7.5,0ZM105.48,89.06c-1.44.17-3.42.65-3.38,2.42l3.62-.24-.24-2.18ZM112.97,89.06h-6.53l.78,6.47,5.5,2.96c.05-.49-.21-2.91.37-2.9.59.55,1.29,1.22,1.93,1.69.19.14.41.5.61.12l-2.66-8.34ZM89.51,117.11c.25.19,5.02-2.05,5.73-2.37,3.67-1.71,13.86-6.43,15.66-9.73,1.11-2.04.88-4.77-.7-6.52-.82-.91-3.68-2.41-4.85-2.3-1.34.12-6.05,6.64-7.08,8.04-3.08,4.18-5.86,8.58-8.75,12.89ZM96.53,115.18h4.96c.62,0,2.94-.67,3.69-.9,5.04-1.54,8.44-4.65,10.16-9.67.38-1.11,1.36-4.36.8-5.28l-2.31-1.8-.12,2.42-1.93-.72c2.16,4.03-.37,7.75-3.84,9.82l-11.4,6.14ZM98.46,116.14l-3.37-.13-5.57,6.66c1.77-.33,5.23.59,6.66-.48,1-.75,1.7-4.75,2.29-6.05Z"/>
  <path class="cls-1" d="M36.55,112.03c-.26-2.15,1.3-3.51,3.33-3.68l1.47-3.03c.17-.77-.55-1.27-.81-2-1.53-4.24-.1-9.13,4.23-10.88-3.49-3.72,3.6-5.9,3.14-.96,2.58-.9,6.78,3.14,8.59,3.14h3.51c.26,2.14-.48,3.6-2.18,4.83,6.52.09,12.43,4.2,14.76,10.28.4,1.04,1.2,3.58,1.2,4.6v15.48c0,.7-2.1-.01-2.48-.18-2.91-1.32-3.07-5.34-.91-7.43h-16.93c.65-2.66,2.71-4.54,5.56-4.35.2-2.46-.92-4.75-2.54-6.53l-3.87,4.11h-6.41c-.02-2.32,1.14-3.34,3.27-3.87l1.09-2.9c-2.15-.18-4.39.15-6.17,1.45-.37.27-1.8,1.93-1.94,1.93h-5.93ZM45.43,89.58c-.88.26-.96,1.68-.01,2.06,2.17.87,2.06-2.66.01-2.06ZM55.41,95.1c-3.79-1.93-7.69-4.39-11.61-1.09,1.39,0,2.52-.48,3.99-.36,1.89.16,3.68,1.35,5.63,1.62.44.06,1.77.32,1.99-.17ZM48.63,94.63c-5.09-.26-8.62,1.27-7.62,7.02.53,3.03,3.53,5.67,6.54,6.03.25.03.91.16.84-.24-3.03-1.59-2.82-6.08.39-7.47,3.02-1.3,6.88.58,9.52-2.09l-1.87-1.27c-.5-.23-3.48-.61-4.06-.56-.77.07-.84.57-1.25.7-1.51.47-2.56-.67-2.5-2.12ZM59.04,95.58c-4.13-.42-.4,1.63,0,1.21v-1.21ZM47.19,114.45h4.96c.97-1.33,6.69-6.35,6.89-7.38.48-2.5-2.76-6.42-5.18-6.66-1.92-.19-5.2-.16-6.23,1.78-1.23,2.33.33,4.49,2.53,5.3.61.22,1.72-.02,1.63.55-.04.28-1.53,4.53-1.72,4.69-.27.23-2.73-.32-2.88,1.72ZM59.89,100.42c-1.09-.13-2.39.09-3.51,0l1.89,1.86c.95,1.22,2.31,3.86,1.61,5.4-.22.49-2.76,2.6-2.76,3.03,1.31,1.25,1.93,2.91,2.76,4.47,1.99-3.6,6.14-5.2,9.96-3.43l2.98,2.34c-.81-5.55-4.34-10.53-9.61-12.64-.8-.32-2.54-.93-3.33-1.02ZM37.52,111.06h4.72c.24,0,2.54-3.04,3.75-2.78-1.41-.66-2.77-1.28-3.75-2.53-.48,0-1.27,3.03-1.69,3.39-.53.46-2.92.22-3.03,1.93ZM72.83,121.22v-4.96c0-.14-1.01-1.68-1.22-1.93-4.08-4.98-11.92-1.65-11.6,4.71-1.88-.63-4.57.09-5.08,2.18h17.9ZM72.83,122.19c-3.98.98-3.98,6.02,0,7.01v-7.01Z"/>
  <path class="cls-1" d="M75,75.03l-.27.93-1.66.03v6.29h14.03v-6.29l-1.7-.11-.23-.49.36-.37h4.23l-.24.85-1.64.47.18,13.19,1.46.11.24.85h-4.6l.24-.85,1.7-.12v-6.29h-14.03l.25,6.28h1.44s0,.98,0,.98h-4.35v-.97s1.94,0,1.94,0c-.1-3.5.13-7.03.01-10.53-.04-1.05-.56-2.02-.01-3.01l-1.7-.12-.24-.85h4.6Z"/>
  <path class="cls-1" d="M98.4,45.22c-.72.68-2.03.24-2.35-.66l2.27-.47c.53.16.39.84.09,1.13Z"/>
  <path class="cls-1" d="M55.84,39.9c-1.14,1.06-3.1,0-3.08-1.49.13-.51,2.9-.44,3.39-.27.48.28-.06,1.53-.31,1.76Z"/>
  <path class="cls-1" d="M110.55,90.02c.21,1.84-2.65,2.25-2.9.36-.06-.49.03-.32.36-.36.78-.11,1.74.08,2.54,0Z"/>
</svg>