<?xml version="1.0" encoding="UTF-8"?>
<svg id="Capa_1" data-name="Capa 1" xmlns="http://www.w3.org/2000/svg" viewBox="0 0 200 200">
  <defs>
    <style>
      .cls-1 {
        fill: #212028;
        fill-rule: evenodd;
      }
    </style>
  </defs>
  <path class="cls-1" d="M162.2,118.06c-1.26-3.72-3.15-7.59-5.84-11.38-4.47-6.32-13.81-15.92-30.89-20.02,8.35-2.17,14.84-7.26,15.62-20.73l.18-3.06-2.86.94c-.11.03-11.56,3.1-37.68-13.7-6.4-4.15-16.51-7.35-26.41-4.54.1-.56.16-1.13.16-1.71,0-5.2-4.15-9.44-9.24-9.44s-9.24,4.23-9.24,9.44c0,4.16,2.65,7.68,6.31,8.94-4.31,4.36-7.73,10.34-10.09,17.79-.6,1.9-1.07,3.76-1.41,5.61l-.3.76c-9.58,24.03-3.25,37.36,1.38,47.09,4.07,8.56,6.59,13.91-1.69,22.85-3.97-5.32-7.5-11.89-10.43-20.37-5.68-16.46-5.8-74.4-5.7-92,6.68.84,18.81.33,33.03-9.61,10.59-7.4,21.98-11.48,32.92-11.81,10.95.32,22.33,4.4,32.92,11.81,14.21,9.93,26.34,10.44,33.03,9.61.09,15.29,0,61.01-3.74,83.55ZM121.51,169.17c-3.31,1.87-6.67,3.78-9.99,5.87,5.28-14.34,3.27-30.39-1.83-39.51-3.94-7.06-11.3-12.83-21.85-17.15-1.33-2.41-6.19-12.05-3.37-19.49,1.48-3.9,4.98-6.68,10.41-8.24,3.46-1,7.2-1.49,10.97-1.81v.03h2.05c26.78,0,39.76,12.69,45.12,20.26,4.46,6.29,6.52,12.83,6.94,18.12-8.93,25.23-23.28,33.34-38.47,41.91ZM93.77,86.62c-6.74,1.95-11.15,5.57-13.12,10.76-2.52,6.65-.33,14.25,1.68,19.03-11.8-4.56-20.54-11.59-24.88-20.09-2.07-4.06-3.09-8.42-3.13-13.02.83-8.37,4.23-14.16,10.13-17.19,7.98-4.11,18.02-1.99,22.59.82,25.58,15.73,48.09,4.96,49.03,4.5l.08-.04c-3,11.43-13.02,12.09-25.3,12.89-5.7.37-11.59.75-17.08,2.34ZM73.77,50.14c2.78-1.02,5.6-1.45,8.36-1.45,6.29,0,12.23,2.26,16.41,4.97,17,10.93,28.27,13.89,34.65,14.47-3.22,1.28-13.29,4.61-26.09,2.23.56-4.41-2.38-8.52-6.71-9.27-3.4-.59-6.67,1.07-8.35,3.92-.96-.52-1.93-1.06-2.9-1.66-6.28-3.86-17.72-5.52-26.56-.97-1.18.61-2.43,1.4-3.66,2.4,3.61-7.4,8.58-12.32,14.84-14.62ZM65.24,49.1c-2.84,0-5.14-2.35-5.14-5.25s2.3-5.25,5.14-5.25,5.14,2.36,5.14,5.25-2.31,5.25-5.14,5.25ZM78.5,169.17c-9.21-5.2-18.12-10.23-25.7-19.02,10.68-11.29,7-19.03,2.77-27.95-3.7-7.8-8.14-17.16-4.76-32.54.59,2.97,1.58,5.84,2.99,8.59,5.4,10.57,16.73,19.01,31.91,23.76,10,3.99,16.87,9.24,20.42,15.59,5.23,9.37,6.76,27.74-1.31,42.04-1.63,1.24-3.24,2.54-4.81,3.96-6.81-6.14-14.27-10.35-21.51-14.44ZM174,23.4l-5.43,2.02c-.54.2-13.49,4.8-31.01-7.44-11.93-8.34-24.88-12.93-37.44-13.27h-.12s-.11,0-.11,0c-12.56.34-25.51,4.93-37.44,13.27-17.52,12.24-30.47,7.64-30.98,7.45l-5.49-2.15-.09,6c-.05,3.23-1.05,79.22,6.13,100.01,9.95,28.83,26.51,38.17,42.51,47.21,8.15,4.6,15.85,8.95,22.58,15.82l2.9,2.96,2.9-2.96c6.73-6.87,14.43-11.21,22.57-15.82,16-9.04,32.55-18.38,42.5-47.21,7.18-20.79,6.17-96.79,6.13-100.01l-.12-5.88Z"/>
</svg>