<?xml version="1.0" encoding="UTF-8"?>
<svg id="Capa_1" data-name="Capa 1" xmlns="http://www.w3.org/2000/svg" viewBox="0 0 200 200">
  <defs>
    <style>
      .cls-1 {
        fill-rule: evenodd;
      }
    </style>
  </defs>
  <path class="cls-1" d="M130.82,164.16c18.6-19.23,21.51-37.4,19-53.16,2.75,2.88,5.71,4.4,8.85,4.53.14,0,.28,0,.41,0,2.57,0,5.08-.98,7.42-2.84-.75,6.73-1.75,12.36-3.09,15.9-7.6,20.09-19.5,28.58-32.6,35.57ZM101.36,181.3c-6.98-5.73-14.74-9.64-22.27-13.44-10.94-5.52-21.47-10.83-29.89-21.4,9.51,4.73,19.22,6.54,28.29,6.54,14.14,0,26.71-4.36,34.46-8.73,19.79-11.17,28.87-31.27,28.9-49.97.67,1.74,1.32,3.52,1.92,5.33l-.04.02.14.3c6.57,20,7.51,44.45-25.7,71.24-5.43,2.87-10.82,6.03-15.82,10.13ZM94.71,55.44l4.63,9.29c-.36-.13-.72-.24-1.05-.34-.42-.13-.84-.26-1.24-.42-5.62-2.29-13.72-1.79-18.75-1.15l3.83-5.92c2.08-.47,7.87-1.64,12.58-1.46ZM109.81,140.97c-13.13,7.41-41.06,14.77-65.7-2.05-1.75-3.06-3.36-6.48-4.81-10.32-3.37-8.92-4.62-31.06-5.03-51.1l14.98-12.37c-2.28,13.06-1.39,24.61,2.65,34.39,5.04,12.2,13.56,18.24,19.83,21.16,13.44,6.27,29.08,3.91,38.02-5.75,12.74-13.76,4.55-29.68,1.04-36.47-.44-.85-.8-1.56-1.03-2.09-.75-1.74-1.61-3.32-2.54-4.73l.1-.05-6.92-13.9,3.18,2.89,6.73-6.44-11.61.14-.32-.64,3.67-6.62,19.79,4.98c3.91,7.87,9.07,18.71,10.85,22.45l.32.86c.44,1.2.93,2.43,1.45,3.69,6.51,20.58-.56,48.39-24.64,61.98ZM34.24,43.15c4.74.3,12.73.51,22.09-.42,18.3-1.81,33.77-7.24,45.04-15.76,11.26,8.52,26.74,13.95,45.03,15.76,9.36.93,17.35.72,22.09.42.18,10.83.47,40.73-1.35,63.02-2.58,3.63-5.52,5.62-8.27,5.51-3.86-.16-7.94-4.36-11.5-11.84l-.66-1.4c-1.83-5.54-4.04-10.67-6.04-15.3-.81-1.87-1.58-3.68-2.3-5.42-.36-1.11-.74-2.21-1.17-3.28-.02-.06-.26-.57-.65-1.4l-.3-.81-.07.02c-2.19-4.63-7.41-15.55-10.98-22.7l-.41-.81-24.88-6.26-5.04,9.1c-6.44-.23-14.24,1.69-14.59,1.78l-.8.2-9.54,14.75,4.73-.99c.13-.03,13.49-2.77,20.75.18.51.21,1.05.38,1.59.54.72.22,1.4.43,1.96.76,2.7,1.59,5.11,4.7,6.96,9,.26.59.66,1.37,1.14,2.32,3.42,6.63,10.52,20.43-.45,32.28-7.7,8.32-21.29,10.3-33.03,4.82-21.6-10.07-24.05-35.99-19.13-56.88l1.36-5.78-21.62,17.85c-.17-12.46-.05-23.54.05-29.27ZM176.56,34.54l-4.57.57c-.43.05-43.18,5.1-67.83-16.07l-2.8-2.41-2.81,2.41c-24.58,21.12-67.4,16.12-67.82,16.07l-4.57-.57-.11,4.3c-.08,2.98-1.81,73.12,5.45,92.32,10.03,26.53,27.12,35.15,43.65,43.49,8.45,4.26,16.44,8.29,23.28,14.67l2.93,2.73,2.93-2.73c6.84-6.38,14.83-10.4,23.28-14.67,16.53-8.34,33.63-16.96,43.65-43.49,7.26-19.2,5.53-89.35,5.45-92.32l-.11-4.3Z"/>
</svg>