<?xml version="1.0" encoding="UTF-8"?>
<svg id="Capa_1" data-name="Capa 1" xmlns="http://www.w3.org/2000/svg" viewBox="0 0 200 200">
  <defs>
    <style>
      .cls-1 {
        fill-rule: evenodd;
      }
    </style>
  </defs>
  <path class="cls-1" d="M159.21,111.85c.76-2.71,1.22-5.29,1.35-7.72l3.47-64.39c-10.81-.68-39.31-4.25-63.98-22.82-22.93,19.24-52.95,22.4-64.18,22.89l2.75,65.15c.21,4.61,1.73,9.81,4.45,15.51,2.5-4.63,6.64-8.24,9.74-10.16l49.97-36.01c1.77-1.29,2.7-2.69,2.82-4.28.14-1.81-.78-3.58-1.58-4.75l-15.18,11.78-11.63-4.61.04.1-1.93.78c-5.82,2.36-9.08,4.06-8.53,11.61l.15,2.06-4.16.3-.15-2.06c-.17-2.38.02-4.35.46-6.02l-7.31-.09.05-4.12,9.19.12c1.79-2.36,4.31-3.73,6.79-4.8l-6.8-2.7.03-1.42c.09-4.09.33-13.76.68-15.19l.23-.92,36.42-18.31,1,.63c.42.27,10.45,6.62,23.53,17.77l.13.13c6.3,6.43,9.16,14.57,8.06,22.93-.96,7.29-4.93,13.68-10.63,17.09-.86.51-1.99,1.36-3.08,2.18-.78.58-1.53,1.15-2.18,1.59-18.94,12.94-40.83,29.49-46.8,34.03,7.24,9.66,14.24,6.42,22.55,1.16l34.5-23.71c6.94-4.14,14.65-4.58,21.28-1.29,3.53,1.76,6.47,4.44,8.47,7.56ZM99.97,183.44c5.06-4.07,16.89-13.92,28.72-26.21,14.22-14.77,23.87-28.26,28.58-39.79-1.21-3.86-4.29-7.43-8.4-9.47-3.12-1.56-9.51-3.48-17.13,1.06l-34.45,23.68h0c-3.63,2.3-8.94,5.65-14.71,5.65-4.82,0-9.96-2.33-14.74-9.55l-1.05-1.59,1.52-1.17.03-.02c1.02-.78,26.71-20.43,48.52-35.33.6-.41,1.29-.93,2-1.46l.03-.02.03-.02c1.17-.88,2.38-1.78,3.42-2.41,4.62-2.76,7.86-8.03,8.66-14.09.93-7.06-1.51-13.97-6.86-19.47-10.49-8.94-19.14-14.84-21.98-16.71l-32.43,16.3c-.15,2.05-.33,7.12-.44,12.02l18.9,7.49,16.37-12.71,1.31,1.3c.18.17,4.32,4.34,3.93,9.4-.22,2.82-1.74,5.27-4.51,7.29l-50.17,36.15c-.41.26-7.61,4.79-9.55,11.43,5.39,9.51,13.86,20.24,25.21,31.86.57.58,1.14,1.16,1.71,1.73,5.66,2.91,11.86,3.02,19.07.46,8.65-3.07,33.52-21.87,33.77-22.06l1.65-1.26,2.54,3.27-1.65,1.25c-1.04.79-25.64,19.38-34.9,22.67-3.83,1.36-7.48,2.04-10.96,2.04-1.08,0-2.14-.07-3.18-.2,9.06,8.59,17.2,15.3,21.17,18.47ZM168.38,31.65h.02l4.43-.03-3.93,72.93c-1.96,37.78-63.73,85.41-66.36,87.42l-2.55,1.95-2.55-1.95c-2.67-2.04-65.47-50.31-67.14-86.66l-3.12-73.77,4.45.1s.04,0,.08,0c2.05,0,40.18.01,65.35-23.13l2.67-2.45,2.82,2.28c28.45,23.06,64.84,23.29,65.83,23.29ZM88.72,50.6l-3.85,10.88-13.89-3.26,17.74-7.62Z"/>
</svg>